{"title":"The Night Manager E03 HDTV 1080p 2ch+AD x265 10bit [S-Less]","uid":13813061,"size":405755896,"categoryP":"video","categoryS":"hd___tv_shows","magnet":"?xt=urn:btih:8f8616d418e8a78c6e2c199f7f5c5eed035b61d3&amp;dn=The+Night+Manager+E03+HDTV+1080p+2ch%2BAD+x265+10bit+%5BS-Less%5D&amp;tr=udp%3A%2F%2Ftracker.leechers-paradise.org%3A6969&amp;tr=udp%3A%2F%2Fzer0day.ch%3A1337&amp;tr=udp%3A%2F%2Fopen.demonii.com%3A1337&amp;tr=udp%3A%2F%2Ftracker.coppersurfer.tk%3A6969&amp;tr=udp%3A%2F%2Fexodus.desync.com%3A6969","seeders":0,"leechers":1,"uploader":"soulessness","files":1,"time":1457630669,"description":"The.Night.Manager.E03.HDTV.1080p.2ch.x265.[S-Less]\r\n\r\n Video: 1920 x 1080 HDTV x265 8bit\r\n Audio: 2.0 English &amp; 2.0 English Audio Described\r\n Subtitles: English\r\n\r\nEpisode 3\r\nWhile he continues to recuperate in Roper's villa, Pine starts to dig up secrets about the other members of the household. Meanwhile, Burr and Steadman seize on an opportunity to recruit a new asset.\r\n\r\nMediaInfo:\r\n\r\n Video\r\n ID : 1\r\n Format : HEVC\r\n Format/Info : High Efficiency Video Coding\r\n Format profile : Main   @Main\r\n Codec ID : V_MPEGH/ISO/HEVC\r\n Duration : 58mn 4s\r\n Bit rate : 736 Kbps\r\n Width : 1 920 pixels\r\n Height : 1 080 pixels\r\n Display aspect ratio : 16:9\r\n Frame rate mode : Constant\r\n Frame rate : 25.000 fps\r\n Color space : YUV\r\n Chroma subsampling : 4:2:0\r\n Bit depth : 10 bits\r\n Bits/(Pixel*Frame) : 0.014\r\n Stream size : 306 MiB (79%)\r\n Writing library : x265 1.8+2-55a4a9b920ff:[Windows][GCC 5.2.0][64 bit] 10bit\r\n Default : Yes\r\n Forced : No\r\n\r\n Audio #1\r\n ID : 2\r\n Format : AAC\r\n Format/Info : Advanced Audio Codec\r\n Format profile : LC\r\n Codec ID : A_AAC\r\n Duration : 58mn 4s\r\n Bit rate : 96.0 Kbps\r\n Channel(s) : 2 channels\r\n Channel positions : Front: L R\r\n Sampling rate : 48.0 KHz\r\n Frame rate : 46.875 fps (1024 spf)\r\n Compression mode : Lossy\r\n Delay relative to video : 9ms\r\n Stream size : 39.9 MiB (10%)\r\n Language : English\r\n Default : Yes\r\n Forced : No\r\n\r\n Audio #2\r\n ID : 3\r\n Format : AAC\r\n Format/Info : Advanced Audio Codec\r\n Format profile : LC\r\n Codec ID : A_AAC\r\n Duration : 58mn 4s\r\n Bit rate : 96.0 Kbps\r\n Channel(s) : 2 channels\r\n Channel positions : Front: L R\r\n Sampling rate : 48.0 KHz\r\n Frame rate : 46.875 fps (1024 spf)\r\n Compression mode : Lossy\r\n Delay relative to video : 9ms\r\n Stream size : 39.9 MiB (10%)\r\n Language : English\r\n Default : No\r\n Forced : No\r\n\r\n Text\r\n ID : 4\r\n Format : UTF-8\r\n Codec ID : S_TEXT/UTF8\r\n Codec ID/Info : UTF-8 Plain Text\r\n Duration : 56mn 28s\r\n Bit rate : 59 bps\r\n Count of elements : 777\r\n Stream size : 24.6 KiB (0%)\r\n Language : English\r\n Default : Yes\r\n Forced : No","torrent":{"xt":"urn:btih:8f8616d418e8a78c6e2c199f7f5c5eed035b61d3","amp;dn":"The+Night+Manager+E03+HDTV+1080p+2ch%2BAD+x265+10bit+%5BS-Less%5D","amp;tr":["udp%3A%2F%2Ftracker.leechers-paradise.org%3A6969","udp%3A%2F%2Fzer0day.ch%3A1337","udp%3A%2F%2Fopen.demonii.com%3A1337","udp%3A%2F%2Ftracker.coppersurfer.tk%3A6969","udp%3A%2F%2Fexodus.desync.com%3A6969"],"infoHash":"8f8616d418e8a78c6e2c199f7f5c5eed035b61d3","infoHashBuffer":{"type":"Buffer","data":[143,134,22,212,24,232,167,140,110,44,25,159,127,92,94,237,3,91,97,211]},"announce":[],"urlList":[]}}